<?xml version="1.0" standalone="no"?><!DOCTYPE svg PUBLIC "-//W3C//DTD SVG 1.1//EN" "http://www.w3.org/Graphics/SVG/1.1/DTD/svg11.dtd"><svg t="1737183171171" class="icon" viewBox="0 0 1024 1024" version="1.1" xmlns="http://www.w3.org/2000/svg" p-id="4350" xmlns:xlink="http://www.w3.org/1999/xlink" width="256" height="256"><path d="M511.987 0.002a511.983 511.983 0 0 1 511.984 511.983l-0.192 14.783971a150.586706 150.586706 0 0 1-1.919996 33.214935 512.176 512.176 0 0 1-509.872004 463.985094h-6.399987a151.099705 151.099705 0 0 1-14.654972-0.447999A511.983 511.983 0 0 1 2.242996 559.919906a139.579727 139.579727 0 0 1-2.239996-25.086951l0.256999-7.487985A511.983 511.983 0 0 1 491.76404 0.385999l3.263993-0.191999h1.919996c1.919996-0.128 3.839993-0.192 5.822989-0.192h9.215982zM345.144326 786.024465l3.647993 9.791981c37.309927 98.493808 91.580821 158.394691 146.043715 163.77068 3.519993 0.192 7.039986 0.256 10.622979 0.319999l-2.687995 0.064c58.749885 0 117.69277-64.380874 156.539694-170.874666-47.357908 7.231986-96.829811 10.879979-147.323712 10.879979-57.533888 0-113.723778-4.735991-166.842674-13.951973z m574.829877-88.699827l-7.295986 4.862991c-48.189906 30.97494-109.949785 55.933891-181.241646 72.957857-19.775961 65.085873-46.526909 120.444765-78.653846 162.234683a449.329122 449.329122 0 0 0 267.191478-240.055531z m-815.974406 0l1.087998 2.303996a449.586122 449.586122 0 0 0 240.888529 228.599553c-29.758942-41.599919-54.717893-95.356814-73.213857-158.009691-66.55687-17.728965-123.963758-42.559917-168.76267-72.829858zM505.460013 64.063875l-7.229986 0.192-3.072994 0.127999c-68.606866 7.231986-137.467732 111.356783-171.450665 268.919475a32.062937 32.062937 0 0 1-2.495995 7.230986 32.062937 32.062937 0 0 1-21.439958 18.047965c-141.307724 35.454931-230.19955 102.5898-235.512541 169.850668 0.319999 7.807985 0.831998 15.55097 1.471998 23.294954 13.567974 65.278873 104.317796 128.18875 240.889529 161.019686a909.347224 909.347224 0 0 0 373.363271 7.999984 949.280146 949.280146 0 0 0 6.719987-30.079941c11.327978-55.997891 17.279966-116.475773 17.279966-178.682651 0-60.156883-5.567989-118.778768-16.255968-173.241662C655.47072 173.821661 580.656866 66.55987 505.460013 64.063875z m252.151507 303.735407l2.559995 18.559963c5.11999 40.573921 7.807985 82.749838 7.807985 125.626755 0 66.42987-6.399988 131.196744-18.559964 191.354626l-0.191999 0.959998C868.199304 669.740692 945.829153 611.630805 958.245128 551.664923c0.639999-7.871985 1.151998-15.806969 1.471998-23.742954l0.255999 6.911986c0-63.997875-76.477851-128.635749-202.425605-167.034673zM479.988063 191.995625a31.999938 31.999938 0 0 1 31.999937 31.999938v244.023523l95.228814 59.581884a31.999938 31.999938 0 0 1 13.119974 38.014925l-2.943994 6.079988a30.90994 30.90994 0 0 1-37.119927 13.630974l-6.014989-2.879995-111.101783-69.501864a31.999938 31.999938 0 0 1-14.90997-29.309943 26.879948 26.879948 0 0 1-0.257-3.647992V223.994563a31.999938 31.999938 0 0 1 31.999938-31.998938zM652.782725 86.591831l3.199994 4.095992c38.399925 51.644899 68.861866 122.87576 88.444827 206.968596l-8.510983-2.110996c85.436833 20.989959 156.794694 53.309896 207.032595 93.629817A449.074123 449.074123 0 0 0 652.846725 86.591831z m-300.471413 6.655987l-1.215998 0.511999a449.074123 449.074123 0 0 0-270.069472 295.349423c45.757911-36.669928 108.923787-66.68587 184.31264-87.676829 19.967961-84.349835 49.790903-155.963695 86.97383-208.184593z" p-id="4351"></path></svg>