<?xml version="1.0" standalone="no"?><!DOCTYPE svg PUBLIC "-//W3C//DTD SVG 1.1//EN" "http://www.w3.org/Graphics/SVG/1.1/DTD/svg11.dtd"><svg t="1746713947495" class="icon" viewBox="0 0 1024 1024" version="1.1" xmlns="http://www.w3.org/2000/svg" p-id="2643" xmlns:xlink="http://www.w3.org/1999/xlink" width="1280" height="1280"><path d="M190.224047 111.393298L251.120383 0 312.016719 111.393298l111.393298 60.896336L312.016719 233.18597l-60.896336 111.493292-60.896336-111.493292-111.393298-60.896336zM768.789237 818.150775L723.591956 900.945794l-45.097286-82.795019-82.695025-45.197281 82.595031-45.19728 45.19728-82.795019 45.197281 82.795019 82.795019 45.19728zM941.278859 562.166177l-45.197281 82.695024-45.19728-82.695024-82.795019-45.297275 82.695025-45.197281L895.981584 388.976597l45.197281 82.59503 82.795019 45.197281zM766.989345 257.084532c-22.798628-22.798628-53.696769-35.597858-85.994826-35.697852-32.198063 0-63.096204 12.79923-85.894832 35.597858L37.033264 815.050962C5.635153 845.649121-7.164077 890.746407 3.935255 933.24385c11.099332 42.497443 44.297335 75.695446 86.794778 86.794778 42.497443 11.099332 87.694724-1.49991 118.092895-33.098008L766.989345 428.774202c22.798628-22.798628 35.597858-53.696769 35.597859-85.894832 0-32.098069-12.79923-62.99621-35.597859-85.794838z m-46.097226 131.592083L538.503093 571.065641c-5.399675-19.798809-15.799049-38.597678-31.398111-53.996751-15.599061-15.699055-34.297936-26.09843-54.096746-31.398111l182.489021-182.48902c15.199086-15.29908 37.497744-21.298719 58.396486-15.699056 20.798749 5.599663 37.097768 21.998676 42.697431 42.797425 5.599663 20.898743-0.49997 43.197401-15.699055 58.396487z" fill="#3e3c3c" p-id="2644"></path></svg>