<?xml version="1.0" standalone="no"?><!DOCTYPE svg PUBLIC "-//W3C//DTD SVG 1.1//EN" "http://www.w3.org/Graphics/SVG/1.1/DTD/svg11.dtd"><svg t="1746873387989" class="icon" viewBox="0 0 2048 1024" version="1.1" xmlns="http://www.w3.org/2000/svg" p-id="7567" xmlns:xlink="http://www.w3.org/1999/xlink" width="1280" height="1280"><path d="M800 456.896a226.56 226.56 0 0 0-72.896-40.896 250.304 250.304 0 0 0-80-12.416 215.04 215.04 0 0 0-106.624 24.896 211.2 211.2 0 0 1 46.208-64 241.28 241.28 0 0 1 69.312-48 304.32 304.32 0 0 1 96.064-23.104l17.792-1.792 32-122.624h-51.52a464.32 464.32 0 0 0-172.48 44.416 339.2 339.2 0 0 0-117.312 92.416 404.8 404.8 0 0 0-69.312 128 517.312 517.312 0 0 0-21.312 151.104 353.536 353.536 0 0 0 17.792 120.896 236.288 236.288 0 0 0 51.52 86.784 203.136 203.136 0 0 0 81.792 49.792 318.016 318.016 0 0 0 193.728 1.792 286.4 286.4 0 0 0 80-42.688 230.4 230.4 0 0 0 56.832-72.896 224 224 0 0 0 21.312-101.312 248.448 248.448 0 0 0-19.584-99.52 275.84 275.84 0 0 0-53.312-70.848z m-85.312 218.624a100.864 100.864 0 0 1-21.312 32 70.912 70.912 0 0 1-33.792 19.52 126.784 126.784 0 0 1-117.312-17.664 108.8 108.8 0 0 1-24.768-78.336 109.76 109.76 0 0 1 8.896-44.416 100.864 100.864 0 0 1 21.312-32 70.912 70.912 0 0 1 33.792-19.52 119.488 119.488 0 0 1 42.688-7.104 151.488 151.488 0 0 1 40.896 5.312 65.216 65.216 0 0 1 30.208 17.792 74.304 74.304 0 0 1 19.52 30.208 134.4 134.4 0 0 1 7.104 49.792 90.304 90.304 0 0 1-7.232 44.416zM1383.04 535.104a210.176 210.176 0 0 0-49.792-39.104c-1.792-1.792-3.584-1.792-7.104-3.584a390.4 390.4 0 0 0 40.896-35.52 151.552 151.552 0 0 0 37.312-104.896 142.912 142.912 0 0 0-17.792-72.896 202.432 202.432 0 0 0-48-55.104 210.048 210.048 0 0 0-69.312-33.728 329.536 329.536 0 0 0-85.312-12.48 267.904 267.904 0 0 0-85.312 12.48 210.048 210.048 0 0 0-69.12 33.728 142.336 142.336 0 0 0-48 55.104 142.912 142.912 0 0 0-17.792 72.896 154.688 154.688 0 0 0 37.312 104.896 196.032 196.032 0 0 0 40.896 35.52 13.504 13.504 0 0 1-7.104 3.584 253.248 253.248 0 0 0-49.792 39.104 168 168 0 0 0-37.312 55.104 164.864 164.864 0 0 0-14.208 74.368 163.84 163.84 0 0 0 23.104 90.624 178.688 178.688 0 0 0 60.416 60.416 238.272 238.272 0 0 0 81.792 32 368 368 0 0 0 88.896 8.896 485.952 485.952 0 0 0 88.896-8.896 301.504 301.504 0 0 0 81.792-32 196.096 196.096 0 0 0 60.416-60.416 163.84 163.84 0 0 0 22.848-90.624 192.704 192.704 0 0 0-14.208-74.624c-16-19.328-28.416-38.848-44.416-54.848z m-266.624-218.624a107.648 107.648 0 0 1 65.792-17.792 97.024 97.024 0 0 1 65.792 17.792 52.672 52.672 0 0 1 17.792 42.688 59.328 59.328 0 0 1-5.312 26.688 52.224 52.224 0 0 1-17.792 21.312 153.6 153.6 0 0 1-28.416 17.792 171.072 171.072 0 0 1-32 12.416 237.44 237.44 0 0 1-32-12.416 168.832 168.832 0 0 1-30.208-17.792 71.104 71.104 0 0 1-17.792-21.312 59.328 59.328 0 0 1-5.312-26.688 54.08 54.08 0 0 1 19.456-42.688z m147.52 398.144a128.576 128.576 0 0 1-81.792 21.312 128.576 128.576 0 0 1-81.792-21.312 71.296 71.296 0 0 1-24.896-56.896 60.864 60.864 0 0 1 7.104-32 108.416 108.416 0 0 1 21.312-28.416 136.576 136.576 0 0 1 35.52-23.104 279.296 279.296 0 0 1 40.896-16 163.008 163.008 0 0 1 40.896 16 136.576 136.576 0 0 1 35.52 23.104 108.416 108.416 0 0 1 21.312 28.416 69.696 69.696 0 0 1 7.104 32 65.92 65.92 0 0 1-21.184 56.896z m726.976-124.416a168 168 0 0 0-37.312-55.104 210.176 210.176 0 0 0-49.792-39.104c-1.792-1.792-3.584-1.792-7.104-3.584a390.4 390.4 0 0 0 40.896-35.52 151.552 151.552 0 0 0 37.312-104.896 142.912 142.912 0 0 0-17.792-72.896 202.432 202.432 0 0 0-48-55.104 210.048 210.048 0 0 0-69.312-33.728 354.176 354.176 0 0 0-87.104-10.688A267.904 267.904 0 0 0 1667.392 192a251.712 251.712 0 0 0-69.312 33.792 158.656 158.656 0 0 0-48 55.104 142.912 142.912 0 0 0-17.792 72.896 147.2 147.2 0 0 0 37.312 103.104 196.032 196.032 0 0 0 40.896 35.52 13.504 13.504 0 0 1-7.104 3.584 253.248 253.248 0 0 0-49.792 39.104 168 168 0 0 0-37.312 55.104 190.208 190.208 0 0 0-14.208 72.896 163.84 163.84 0 0 0 23.104 90.624 178.688 178.688 0 0 0 60.416 60.416 253.312 253.312 0 0 0 81.792 32 368.064 368.064 0 0 0 88.896 8.896 485.952 485.952 0 0 0 88.896-8.896 301.504 301.504 0 0 0 81.792-32 196.096 196.096 0 0 0 60.416-60.416 163.84 163.84 0 0 0 23.104-90.624 291.328 291.328 0 0 0-19.584-72.896z m-303.936-273.728a107.648 107.648 0 0 1 65.728-17.792 97.024 97.024 0 0 1 65.792 17.792 52.672 52.672 0 0 1 17.792 42.688 59.328 59.328 0 0 1-5.312 26.688 52.288 52.288 0 0 1-17.792 21.312 153.6 153.6 0 0 1-28.416 17.792 171.072 171.072 0 0 1-32 12.416 237.376 237.376 0 0 1-32-12.416 168.768 168.768 0 0 1-30.208-17.792 71.104 71.104 0 0 1-17.792-21.312 59.328 59.328 0 0 1-5.312-26.688 60.288 60.288 0 0 1 19.52-42.688z m147.52 398.144a167.36 167.36 0 0 1-163.52 0 71.296 71.296 0 0 1-24.896-56.896 60.864 60.864 0 0 1 7.104-32 108.416 108.416 0 0 1 21.312-28.416 136.64 136.64 0 0 1 35.52-23.104c12.416-5.312 26.688-10.688 40.896-16a163.008 163.008 0 0 1 40.896 16 175.232 175.232 0 0 1 35.52 23.104 108.416 108.416 0 0 1 21.312 28.416 60.864 60.864 0 0 1 7.104 32 65.92 65.92 0 0 1-21.248 56.896zM83.712 364.48l72.896-23.104v512h140.416V165.376L37.504 248.896z" fill="#FF7234" p-id="7568"></path></svg>