<?xml version="1.0" standalone="no"?><!DOCTYPE svg PUBLIC "-//W3C//DTD SVG 1.1//EN" "http://www.w3.org/Graphics/SVG/1.1/DTD/svg11.dtd"><svg t="1746873357569" class="icon" viewBox="0 0 1024 1024" version="1.1" xmlns="http://www.w3.org/2000/svg" p-id="2697" xmlns:xlink="http://www.w3.org/1999/xlink" width="1280" height="1280"><path d="M565.104 611.426c-22.852 40.48-59.16 65.321-99.501 65.321-55.111 0-87.392-42.02-87.392-104.221 0-122.396 109.822-144.7 213.802-144.7v31.144c0 56.015 1.331 102.655-26.909 152.456z m26.909-298.718c-83.375 9.343-192.292 15.555-270.282 49.796-90.077 38.89-153.277 118.214-153.277 234.921 0 149.322 94.106 224.022 215.137 224.022 102.182 0 158.081-24.1 236.972-104.485 26.106 37.775 34.65 56.106 82.396 95.796 10.715 5.77 24.444 5.155 33.96-3.36l0.329 0.325c28.696-25.545 80.886-70.835 110.23-95.465 11.701-9.551 9.642-25.105 0.476-38.191-26.279-36.3-54.254-65.82-54.254-133.176V318.958c0-94.908 6.715-182.066-63.187-247.39C675.363 18.681 583.933 0 514.022 0 377.231 0 224.6 51.059 192.589 220.069c-3.41 17.973 9.67 27.403 21.45 30.059l139.306 15.082c13.04-0.678 22.481-13.495 24.976-26.425 11.959-58.224 60.71-86.336 115.526-86.336 29.576 0 63.185 10.905 80.686 37.362 20.155 29.553 17.479 70.009 17.479 104.249v18.648M894.396 876.813c-120.971 51.305-252.442 76.116-372.034 76.116-177.291 0-348.933-48.632-487.744-129.397-12.14-7.074-21.15 5.406-11.056 14.516C152.229 954.219 322.226 1024 511.022 1024c134.706 0 291.144-42.361 399.054-121.981 17.851-13.18 2.565-32.951-15.68-25.206" fill="#050505" p-id="2698"></path><path d="M1001.019 815.599c-11.761-14.499-112.962-27.041-174.717 16.346-9.496 6.679-7.875 15.853 2.664 14.593 34.78-4.143 112.215-13.448 126.016 4.223 13.826 17.674-15.355 90.5-28.354 123.035-3.96 9.826 4.505 13.81 13.419 6.354 57.882-48.431 72.836-149.881 60.972-164.551" fill="#050505" p-id="2699"></path></svg>