<?xml version="1.0" standalone="no"?><!DOCTYPE svg PUBLIC "-//W3C//DTD SVG 1.1//EN" "http://www.w3.org/Graphics/SVG/1.1/DTD/svg11.dtd"><svg t="1746867269195" class="icon" viewBox="0 0 1024 1024" version="1.1" xmlns="http://www.w3.org/2000/svg" p-id="6752" xmlns:xlink="http://www.w3.org/1999/xlink" width="1280" height="1280" fill="#585b65"><path d="M839.682781 0H184.247691C82.511678 0 0 70.518197 0 157.549158v708.919066c0 87.01358 82.511678 157.531776 184.247691 157.531776h655.296035c101.80554 0 184.247691-70.518197 184.247692-157.531776V157.549158C1024 70.518197 941.488322 0 839.682781 0zM383.043998 473.481803a131.963064 131.963064 0 1 1 132.102118 131.980446 132.102118 132.102118 0 0 1-132.102118-131.980446zM778.707224 945.225421H251.359044c6.379142-139.993482 122.159696-251.79359 263.700163-251.79359S772.293319 805.231939 778.707224 945.225421z m153.16893-78.774579c0 35.511135-27.498099 65.529603-65.286257 75.367735A351.947854 351.947854 0 0 0 661.70994 637.392721a219.950027 219.950027 0 1 0-293.33623 0A351.913091 351.913091 0 0 0 163.389462 943.174362C122.594242 935.143944 92.123846 903.8566 92.123846 866.450842V157.549158c0-43.454644 41.26453-78.774579 92.123845-78.774579h655.296035c50.894079 0 92.123846 35.250407 92.123846 78.774579z" p-id="6753"></path></svg>