<?xml version="1.0" standalone="no"?><!DOCTYPE svg PUBLIC "-//W3C//DTD SVG 1.1//EN" "http://www.w3.org/Graphics/SVG/1.1/DTD/svg11.dtd"><svg t="1746867564798" class="icon" viewBox="0 0 1024 1024" version="1.1" xmlns="http://www.w3.org/2000/svg" p-id="12272" xmlns:xlink="http://www.w3.org/1999/xlink" width="1280" height="1280" fill="#585b65"><path d="M938.666667 768v128c0 25.6-17.066667 42.666667-42.666667 42.666667h-128c-25.6 0-42.666667 17.066667-42.666667 42.666666s17.066667 42.666667 42.666667 42.666667h128c72.533333 0 128-55.466667 128-128v-128c0-25.6-17.066667-42.666667-42.666667-42.666667s-42.666667 17.066667-42.666666 42.666667zM85.333333 256V128c0-25.6 17.066667-42.666667 42.666667-42.666667h128c25.6 0 42.666667-17.066667 42.666667-42.666666s-17.066667-42.666667-42.666667-42.666667H128C55.466667 0 0 55.466667 0 128v128c0 25.6 17.066667 42.666667 42.666667 42.666667s42.666667-17.066667 42.666666-42.666667zM768 85.333333h128c25.6 0 42.666667 17.066667 42.666667 42.666667v128c0 25.6 17.066667 42.666667 42.666666 42.666667s42.666667-17.066667 42.666667-42.666667V128c0-72.533333-55.466667-128-128-128h-128c-25.6 0-42.666667 17.066667-42.666667 42.666667s17.066667 42.666667 42.666667 42.666666zM256 938.666667H128c-25.6 0-42.666667-17.066667-42.666667-42.666667v-128c0-25.6-17.066667-42.666667-42.666666-42.666667s-42.666667 17.066667-42.666667 42.666667v128c0 72.533333 55.466667 128 128 128h128c25.6 0 42.666667-17.066667 42.666667-42.666667s-17.066667-42.666667-42.666667-42.666666z" p-id="12273"></path></svg>